<svg width="65" height="65" viewBox="0 0 65 65" fill="none" xmlns="http://www.w3.org/2000/svg">
<rect width="65" height="65" rx="5" fill="#06AB78"/>
<path d="M53.0117 31.1578C53.1032 31.8629 53.1504 32.6122 53.1504 33.4087C53.1504 37.9369 51.7786 40.9813 50.4659 42.8723C49.9473 43.6229 49.3435 44.311 48.6664 44.9225C48.4452 45.1206 48.2128 45.3058 47.9702 45.4771L47.9436 45.4948C47.7315 45.6274 47.5566 45.8118 47.4353 46.0306C47.314 46.2494 47.2504 46.4954 47.2504 46.7456V51.6751C47.2504 52.0662 47.095 52.4414 46.8184 52.718C46.5418 52.9947 46.1666 53.1501 45.7754 53.1501H41.6926C41.6018 53.1501 41.5148 53.114 41.4506 53.0498C41.3864 52.9856 41.3504 52.8986 41.3504 52.8079C41.3504 50.9877 39.8754 49.5127 38.0582 49.5127H32.8426C31.0254 49.5127 29.5504 50.9877 29.5504 52.8079C29.5504 52.8986 29.5143 52.9856 29.4502 53.0498C29.386 53.114 29.2989 53.1501 29.2082 53.1501H25.1254C24.7342 53.1501 24.359 52.9947 24.0824 52.718C23.8058 52.4414 23.6504 52.0662 23.6504 51.6751V49.1675C23.6495 48.8586 23.5517 48.5577 23.3707 48.3074C23.1897 48.057 22.9346 47.8698 22.6415 47.7722L22.5235 47.7162C22.2892 47.601 22.0626 47.4709 21.845 47.3268C21.196 46.9079 20.1723 46.1291 18.8006 44.7396C17.5633 43.4659 16.5668 41.9787 15.8594 40.35C15.3166 39.1051 14.1809 38.0107 12.6616 37.754C12.4355 37.7158 12.2301 37.5989 12.0817 37.4241C11.9333 37.2492 11.8514 37.0276 11.8504 36.7982V32.3526C11.8504 32.1502 11.9221 31.9544 12.0528 31.7999C12.1835 31.6455 12.3647 31.5423 12.5643 31.5089C14.1868 31.2345 15.3373 29.9926 15.7857 28.6238C16.1692 27.4497 16.8595 25.9098 18.0041 24.7504C18.9693 23.7879 20.0493 22.9477 21.2196 22.2488C21.6885 21.9668 22.1709 21.7079 22.6651 21.473L22.7418 21.4376L22.7565 21.4317C23.0225 21.3176 23.2491 21.1279 23.408 20.8861C23.5669 20.6443 23.6512 20.3611 23.6504 20.0717V13.8856C24.3967 14.5346 25.267 15.2367 26.2051 15.8621C27.4854 16.7235 29.0105 17.5318 30.577 17.8238C30.9391 16.8399 31.4143 15.9014 31.993 15.0272C31.8131 15.0081 31.6331 14.9894 31.4531 14.9712C30.4059 14.865 29.1462 14.2838 27.8453 13.4136C26.674 12.6081 25.5736 11.7041 24.556 10.7114C24.2377 10.4076 23.838 10.2027 23.4055 10.1215C22.973 10.0404 22.5262 10.0864 22.1193 10.2541C21.7018 10.418 21.3432 10.7037 21.0902 11.0741C20.8371 11.4444 20.7013 11.8824 20.7004 12.3309V19.1572C18.9377 20.089 17.3216 21.2748 15.9037 22.6766C14.3018 24.2991 13.4316 26.3346 12.9832 27.7063C12.8062 28.2314 12.4227 28.5412 12.0746 28.6002C11.1878 28.7493 10.3825 29.2077 9.80143 29.8941C9.22039 30.5804 8.90118 31.4503 8.90039 32.3496V36.7953C8.89993 37.7226 9.22797 38.6202 9.82632 39.3287C10.4247 40.0372 11.2546 40.5109 12.169 40.6657C12.5377 40.7247 12.936 41.0256 13.1543 41.53C14.0068 43.4903 15.2083 45.2795 16.7002 46.8105C18.2017 48.3327 19.3876 49.2502 20.2372 49.8018C20.4054 49.911 20.5617 50.0054 20.7004 50.088V51.6751C20.7004 52.2561 20.8148 52.8316 21.0372 53.3684C21.2596 53.9053 21.5855 54.3931 21.9964 54.804C22.4073 55.2149 22.8952 55.5408 23.432 55.7632C23.9689 55.9856 24.5443 56.1001 25.1254 56.1001H29.2082C31.0254 56.1001 32.5004 54.6251 32.5004 52.8079C32.5004 52.6161 32.6538 52.4627 32.8426 52.4627H38.0582C38.247 52.4627 38.4004 52.6161 38.4004 52.8079C38.4004 54.6251 39.8754 56.1001 41.6926 56.1001H45.7754C46.949 56.1001 48.0745 55.6338 48.9043 54.804C49.7342 53.9741 50.2004 52.8486 50.2004 51.6751V47.489C51.2246 46.6384 52.1278 45.6519 52.8849 44.5567C54.5221 42.2056 56.1004 38.58 56.1004 33.4087C56.1004 31.267 55.8024 29.3495 55.236 27.6355C54.6842 28.9191 53.9335 30.1078 53.0117 31.1578ZM52.5692 18.4345C53.4544 20.574 53.5947 22.9489 52.9677 25.1777C52.3406 27.4066 50.9827 29.36 49.1118 30.7242C47.8433 31.6446 46.1707 31.5797 44.7252 30.9808L35.7572 27.2668C34.3117 26.6679 33.0815 25.5322 32.8367 23.9864C32.455 21.4951 32.9976 18.9503 34.3623 16.8315C35.7271 14.7127 37.8197 13.1662 40.2457 12.4835C42.6718 11.8008 45.2638 12.029 47.5333 13.1252C49.8027 14.2214 51.5958 16.1097 52.5692 18.4345ZM47.3772 28.3406C48.4366 27.5693 49.2713 26.5297 49.7956 25.3287C50.3198 24.1277 50.5146 22.8088 50.3598 21.5076C50.2051 20.2063 49.7065 18.9698 48.9153 17.9253C48.124 16.8807 47.0688 16.0658 45.8581 15.5645C44.6474 15.0631 43.325 14.8934 42.0269 15.0728C40.7289 15.2521 39.5021 15.7741 38.4727 16.585C37.4433 17.3959 36.6486 18.4664 36.1703 19.6864C35.692 20.9063 35.5473 22.2317 35.7513 23.5262C35.7858 23.6935 35.8713 23.846 35.9961 23.9628C36.1849 24.1634 36.4858 24.3758 36.887 24.541L45.855 28.258C46.1829 28.3995 46.5363 28.4728 46.8934 28.4733C47.0645 28.4801 47.2336 28.4337 47.3772 28.3406ZM22.9129 31.0251C23.4997 31.0251 24.0624 30.7919 24.4774 30.377C24.8923 29.9621 25.1254 29.3993 25.1254 28.8126C25.1254 28.2258 24.8923 27.663 24.4774 27.2481C24.0624 26.8332 23.4997 26.6001 22.9129 26.6001C22.3261 26.6001 21.7633 26.8332 21.3484 27.2481C20.9335 27.663 20.7004 28.2258 20.7004 28.8126C20.7004 29.3993 20.9335 29.9621 21.3484 30.377C21.7633 30.7919 22.3261 31.0251 22.9129 31.0251Z" fill="white"/>
</svg>
